HIERARCHY
ROOT pelvis
{
  OFFSET 0 100 0
  CHANNELS 6 Xposition Yposition Zposition Zrotation Xrotation Yrotation
  JOINT pelvis_right_femur
  {
    OFFSET -10.78128 -3.44521 -0.5502486
    CHANNELS 3 Zrotation Xrotation Yrotation
    JOINT right_femur_tibia
    {
      OFFSET -0.8047443 -44.0398 -0.1307829
      CHANNELS 3 Zrotation Xrotation Yrotation
      JOINT right_tibia_foot
      {
        OFFSET 3.006224 -47.83518 -5
        CHANNELS 3 Zrotation Xrotation Yrotation
        End Site
        {
          OFFSET 0 -5 15
        }
      }
    }
  }
  JOINT pelvis_left_femur
  {
    OFFSET 10.78128 -3.44521 -0.5502486
    CHANNELS 3 Zrotation Xrotation Yrotation
    JOINT left_femur_tibia
    {
      OFFSET 0.8047443 -44.0398 -0.1307829
      CHANNELS 3 Zrotation Xrotation Yrotation
      JOINT left_tibia_foot
      {
        OFFSET -4.370144 -48.10324 -4.275266
        CHANNELS 3 Zrotation Xrotation Yrotation
        End Site
        {
          OFFSET 0 -5 15
        }
      }
    }
  }
  JOINT pelvis_spine1
  {
    OFFSET 0 6.468898 -3.129235
    CHANNELS 3 Zrotation Xrotation Yrotation
    JOINT spine1
    {
      OFFSET 0 23.15396 4.99043
      CHANNELS 3 Zrotation Xrotation Yrotation
      JOINT spine2
      {
        OFFSET 0 20.79997 -5.064912
        CHANNELS 3 Zrotation Xrotation Yrotation
        JOINT neck
        {
          OFFSET 0 14.38658 9.616178
          CHANNELS 3 Zrotation Xrotation Yrotation
          End Site
          {
            OFFSET 0 20 0
          }
        }
      }
      JOINT right_manubrium
      {
        OFFSET -5.722621 16.35077 3.967754
        CHANNELS 3 Zrotation Xrotation Yrotation
        JOINT right_clavicle
        {
          OFFSET -13.16364 1.694482 -4.693211
          CHANNELS 3 Zrotation Xrotation Yrotation
          JOINT right_humerus
          {
            OFFSET -28.5034 -0.3100689 -2.792744
            CHANNELS 3 Zrotation Xrotation Yrotation
            JOINT right_radius
            {
              OFFSET -25.15693 0.02248979 -1.271978
              CHANNELS 3 Zrotation Xrotation Yrotation
              End Site
              {
                OFFSET -15 0 0
              }
            }
          }
        }
      }
      JOINT left_manubrium
      {
        OFFSET 5.722621 16.35077 3.967754
        CHANNELS 3 Zrotation Xrotation Yrotation
        JOINT left_clavicle
        {
          OFFSET 13.16364 1.694482 -4.693211
          CHANNELS 3 Zrotation Xrotation Yrotation
          JOINT left_humerus
          {
            OFFSET 29.39168 -1.063119 -2.237045
            CHANNELS 3 Zrotation Xrotation Yrotation
            JOINT left_radius
            {
              OFFSET 24.59957 -0.9528479 0.9047498
              CHANNELS 3 Zrotation Xrotation Yrotation
              End Site
              {
                OFFSET 15 -0 -0
              }
            }
          }
        }
      }
    }
  }
}
MOTION
Frames: 9
Frame Time: 0.0416666666667
0 103.5113 0 0.6363887 -0.9381846 0.0270201 4.068156 -17.47281 10.75862 -0 41.17405 -0 -5.162606 -18.36476 -4.184462 -6.86104 10.9299 -24.34742 -0 6.357004 -0 9.531953 -15.99512 27.82744 -3.482391 -3.416683 4.522259 2.373072 8.999923 -7.148826 1.787383 22.28196 6.617336 2.649085 -24.54223 10.22074 6.513539 -19.51984 11.19072 84.85921 35.82701 -17.87431 -0 0 16.93868 -5.816208 8.161402 3.866375 5.207449 -18.10937 -1.494728 -94.14344 27.33629 22.36281 0 0 -14.33007 8.342945 17.09807 4.825387
0.2651515 103.6989 1.464305 0.5298252 -1.100983 0.05903097 4.044826 -17.75817 10.38247 -0 41.0386 -0 -5.392206 -17.36276 -4.061417 -6.728508 11.02425 -23.97685 -0 6.362884 -0 9.056815 -16.25752 27.40012 -3.344599 -3.277283 4.423267 2.304832 9.103715 -7.153499 1.77319 22.29638 6.673785 2.698599 -24.56411 10.19604 6.285875 -19.52629 11.19079 85.134 35.34072 -17.98702 -0 0 16.74553 -6.301974 8.204422 4.025034 5.254787 -18.36674 -1.65801 -93.99233 27.28923 22.19092 0 0 -14.50387 8.282195 17.14343 4.927306
0.5659259 103.7095 3.183807 -0.09493643 0.06607499 0.07196558 5.126223 -21.77218 10.04099 -0 36.57045 -0 -5.34793 -15.22192 -3.55879 -6.469307 11.08584 -23.03041 -0 5.850379 -0 8.229823 -18.11777 26.48977 -2.850059 -2.795707 4.677085 2.397191 9.148496 -7.354812 1.851812 21.63946 6.895758 2.991939 -25.48397 10.38616 5.971192 -19.64734 11.14565 85.50895 34.99502 -18.69832 -0 0 16.75972 -6.337458 8.415173 3.836659 6.077888 -19.34849 -1.376277 -94.15303 27.13463 22.4044 0 0 -16.07897 8.760476 17.00787 4.970424
0.8879742 103.5202 5.197863 -0.5911161 1.294701 0.1324796 6.12477 -25.59002 9.728046 -0 31.87309 -0 -5.269397 -13.24674 -3.052907 -6.278824 11.35252 -22.10979 -0 5.587242 -0 7.565728 -19.83698 25.56479 -2.541235 -2.369204 4.842848 2.576947 9.11447 -7.572611 1.895101 21.01927 7.126366 3.273286 -26.32426 10.56796 5.779137 -19.57887 11.10545 85.81917 34.99895 -19.41209 -0 0 16.46974 -6.28468 8.653235 3.656353 6.83098 -20.21477 -1.040856 -94.0437 26.84036 22.21074 0 0 -17.67449 9.416247 16.72746 4.596695
1.213314 103.1452 7.591462 -1.02082 2.464046 0.2794704 7.011496 -29.15783 9.279658 -0 27.04585 -0 -5.282818 -11.0378 -2.535139 -6.078993 11.92194 -21.06938 -0 5.734378 -0 6.642522 -21.50831 24.34396 -2.323785 -1.948787 4.846894 2.803003 9.013567 -7.802127 1.896696 20.47181 7.389679 3.549533 -27.06644 10.73262 5.585575 -19.29915 11.04865 86.21279 35.06099 -20.20402 -0 0 15.77739 -6.34701 8.925305 3.53763 7.489223 -21.03401 -0.7346628 -93.68434 26.55237 21.61616 0 0 -19.30464 9.983953 16.36893 4.119347
1.523949 102.6237 10.45815 -1.393138 3.490301 0.5516074 7.733541 -32.1947 8.684156 -0 22.46656 -0 -5.435905 -8.721982 -2.040185 -5.855126 12.77593 -19.93606 -0 6.507253 -0 5.358282 -22.9315 22.76464 -2.156036 -1.559926 4.660411 3.049036 8.837802 -8.021064 1.853565 20.03863 7.673061 3.796399 -27.63935 10.86939 5.391884 -18.79199 10.96334 86.67801 35.1479 -21.02483 -0 0 14.69557 -6.541618 9.227137 3.494506 7.988521 -21.73253 -0.486749 -93.09596 26.27464 20.64999 0 0 -20.81866 10.40313 15.94405 3.594498
1.804654 102.0221 13.89809 -1.73878 4.253188 0.9767267 8.244144 -34.38237 7.90936 -0 18.58897 -0 -5.800101 -6.460077 -1.602865 -5.571507 13.83552 -18.7146 -0 8.188574 -0 3.592967 -23.82514 20.75154 -1.954189 -1.21977 4.260612 3.269488 8.597292 -8.20139 1.762602 19.76774 7.957255 3.985946 -27.95504 10.95463 5.181757 -18.06441 10.83856 87.20597 35.17665 -21.79922 -0 0 13.27293 -6.921108 9.553653 3.55281 8.263341 -22.24456 -0.3476299 -92.31104 25.98704 19.36758 0 0 -22.0311 10.62856 15.47974 3.081827
2.047953 101.4424 17.99387 -2.096475 4.640723 1.552827 8.552578 -35.37179 6.998482 -0 15.91195 -0 -6.423537 -4.549411 -1.270285 -5.190546 14.89745 -17.43412 -0 11.10569 -0 1.333186 -23.81501 18.33177 -1.612296 -0.9537879 3.670333 3.412298 8.325037 -8.319333 1.621222 19.69102 8.209843 4.0901 -27.93627 10.95023 4.958076 -17.17773 10.67742 87.75836 35.09491 -22.42871 -0 0 11.65659 -7.495644 9.893518 3.727246 8.256009 -22.50283 -0.3594934 -91.429 25.67488 17.9406 0 0 -22.73536 10.62023 15.00832 2.68036
2.2588 101.0216 22.77687 -2.495804 4.56512 2.222904 8.733256 -34.86674 6.065956 -0 14.80981 -0 -7.315259 -3.338575 -1.08943 -4.685261 15.61282 -16.12195 -0 15.59232 -0 -1.25101 -22.52492 15.6922 -1.032281 -0.784693 2.982093 3.429794 8.093782 -8.365572 1.42796 19.81041 8.386629 4.093488 -27.548 10.80176 4.734267 -16.26366 10.50849 88.29001 34.8783 -22.82237 -0 0 10.08055 -8.240738 10.2249 4.02093 7.942119 -22.48362 -0.5505284 -90.60089 25.32928 16.64673 0 0 -22.77406 10.3677 14.55766 2.503656
